<?xml version="1.0" ?>
<!DOCTYPE svg
  PUBLIC '-//W3C//DTD SVG 1.1//EN'
  'http://www.w3.org/Graphics/SVG/1.1/DTD/svg11.dtd'>
<svg preserveAspectRatio="xMinYMin meet" version="1.1" viewBox="0 0 800 800" xmlns="http://www.w3.org/2000/svg">
<g fill="none" stroke="black" stroke-linecap="round" stroke-linejoin="round" stroke-width="1.8">
<g transform="translate(0,0) scale(1.600) translate(0,0)">
<path d="M273 198C273 191.856 272.157 185.005 273.598 179C276.219 168.081 283.106 158.828 286.123 148C287.946 141.461 286.162 134.557 288.108 128C289.579 123.044 292.55 119.241 293.409 114C294.471 107.522 295.234 87.9232 303.105 85.7886C313.725 82.9083 328.859 99.4759 333.56 107C346.121 127.104 346.515 158.035 348.09 181C348.643 189.069 351.329 198.119 349 206C359.27 210.362 373.886 214.481 385 215.816C395.173 217.037 407.968 215.825 416.981 221.819C429.63 230.229 418.236 246.635 422.742 257.981C426.255 266.826 439.643 264.365 443.972 272.108C447.327 278.107 442.45 284.505 438.92 289C430.486 299.739 421.735 306.409 409 311.547C391.405 318.646 366.683 315.443 348 314.985C341.907 314.836 330.002 311.176 324.495 314.198C321.768 315.694 320.187 320.413 318.719 323C313.574 332.07 310.676 341.707 306.18 351C294.749 374.627 276.678 395.78 254 409.265C242.809 415.919 229.085 420.939 216 417.387C204.893 414.372 204.096 402.691 203.17 393C200.956 369.828 209.237 345.742 216.33 324C218.181 318.328 226.277 304.037 222.958 298.518C214.193 283.944 183.616 280.464 169 274.949C142.209 264.84 117.025 246.981 94 230.293C84.8607 223.669 71.7281 215.821 66 206C72.174 202.096 68.9839 184.969 69 178C69.0496 156.582 71.6995 129.588 81 110C92.1493 119.462 94.881 134.083 99.4398 147C103.118 157.422 108.714 167.199 113.742 177C116.567 182.505 120.142 193.523 125.415 196.972C129.53 199.663 138.253 198 143 198L188 198C226.046 198 265.056 196.489 303 199.09C318.433 200.147 333.675 205.3 349 206"/>
<path d="M355 248L362 247"/>
<path d="M95 200L103 202"/>
<path d="M70 203L123 198"/>
<path d="M70 206L69 208"/>
<path d="M70 213C61.2391 225.414 59.7201 244.297 57.2469 259C56.2142 265.14 54.1875 270.854 56 277C78.2525 271.518 94.593 259.736 114 248"/>
<path d="M392 234C395.609 227.391 408.925 228.414 411.338 236.09C413.522 243.038 403.732 242.758 400.039 240.63C396.376 238.518 394.085 235.415 390 234"/>
<path d="M168 231L177 232C174.42 236.675 169.034 236.6 168 231"/>
<path d="M170 232L170 234"/>
<path d="M210 236C203.992 246.213 187.614 232.809 203.995 234.983C206.081 235.26 207.968 235.467 210 236"/>
<path d="M395 236L407 236"/>
<path d="M205 236L205 238"/>
<path d="M323 242L315 241C319.174 234.183 326.533 239.602 332 242C328.318 243.924 323.463 244.346 326 239"/>
<path d="M283 241C279.926 243.045 278.847 243.437 276 241L283 241"/>
<path d="M239 242L245 241"/>
<path d="M283 241L285 241"/>
<path d="M370 248L362 247C365.253 243.976 367.78 243.984 370 248"/>
<path d="M225 297C230.066 285.522 241.451 287.809 252 286.424C279.58 282.803 309.591 283.781 323 312"/>
</g>
</g>
</svg>