<?xml version="1.0" ?>
<!DOCTYPE svg
  PUBLIC '-//W3C//DTD SVG 1.1//EN'
  'http://www.w3.org/Graphics/SVG/1.1/DTD/svg11.dtd'>
<svg preserveAspectRatio="xMinYMin meet" version="1.1" viewBox="0 0 800 800" xmlns="http://www.w3.org/2000/svg">
<g fill="none" stroke="black" stroke-linecap="round" stroke-linejoin="round" stroke-width="1.8">
<g transform="translate(0,0) scale(1.600) translate(0,0)">
<path d="M261 64C274.154 65.0035 261.912 75.4343 254.005 75.0525C242.118 74.4785 247.692 53.8316 255.094 50.5293C272.219 42.8893 275.756 77.6537 275.985 87C276.072 90.5318 274.629 97.2006 278.318 99.2971C284.849 103.008 295.663 102.212 303 104.301C316.856 108.246 331.608 117.279 341.946 127.129C369.808 153.676 383.421 205.423 379.83 243C377.683 265.468 368.937 286.184 363.887 308C360.91 320.861 360.764 334.059 357.745 347C349.734 381.331 336.696 409.916 315.469 438C308.831 446.782 303.864 458.4 293 462.867C275.668 469.994 249.461 461.526 233.004 454.981C228.623 453.238 225.559 449.516 220.996 448.255C207.528 444.532 190.359 442.472 178.039 435.562C170.183 431.155 164.431 422.375 157.816 416.455C137.655 398.413 123.215 374.671 110.445 351C104.953 340.819 98.5573 330.58 96.375 319C93.4395 303.424 95.3362 283.699 96.8302 268C99.1407 243.721 100.358 220.929 105.961 197C111.578 173.006 110.689 149.913 126.025 129.09C148.65 98.367 179.612 93.8301 215 94.0008C223.349 94.041 230.848 97.5494 239 97.9599C241.905 98.1061 247.172 97.2601 248.843 100.434C251.07 104.663 243.842 121.002 242.579 126C237.833 144.787 241.542 159.52 243 178"/>
<path d="M276 125C294.65 129.714 310.999 146.567 311 166C311 172.016 311.35 178.045 306.62 182.585C301.825 187.188 295.929 186.319 290 187.514C275.378 190.46 261.129 194.88 246 192.7C233.848 190.949 225.208 182.602 214 178.825C208.628 177.015 200.649 177.548 196.84 172.852C188.177 162.172 193.749 143.476 197.491 132C199.128 126.978 200.263 122.027 205.04 119.008C213.692 113.541 226.279 115 236 115"/>
<path d="M267 65L268 61L265 64"/>
<path d="M252 76C252.342 83.9689 253.97 91.5985 250 99"/>
<path d="M276 99L265.448 129L251 182"/>
<path d="M226 450L238 447.122L255 439"/>
</g>
</g>
</svg>