<?xml version="1.0" encoding="utf-8"?>
<!DOCTYPE svg PUBLIC "-//W3C//DTD SVG 1.1//EN" "http://www.w3.org/Graphics/SVG/1.1/DTD/svg11.dtd">
<svg viewBox="0 0 800 800" preserveAspectRatio="xMinYMin meet" xmlns="http://www.w3.org/2000/svg" version="1.1">
<g fill="none" stroke="black" stroke-linecap="round" stroke-linejoin="round" stroke-width="1.8481">
<g transform="translate(0,0) scale(3.0) translate(0,0)">
<path id="0" d="M32.1489 27.7461C40.0181 24.2774 57.5238 28.6174 66 29.7184C78.3742 31.3256 96.4635 33.9329 106.715 41.5887C115.989 48.5155 122.461 64.109 128.1 74C136.965 89.5496 147.417 104.007 156.802 119.17C163.38 129.799 168.499 143.359 176.394 152.957C187.458 166.408 204.672 165.307 217.999 174.108C225.557 179.099 226.576 185.528 230.418 192.91C234.48 200.714 243.856 208.699 231.995 215.633C222.101 221.418 208.983 222.744 198 225.439C170.484 232.191 132.75 244.305 105 233.071C96.8841 229.785 91.3008 222.944 86.3002 216C83.7183 212.415 81.6389 207.054 76.9961 205.697C70.4176 203.774 59.6458 209.373 53 210.536C45.835 211.791 38.7124 208.943 32 206.742C28.1531 205.48 22.3715 204.283 20.0278 200.61C14.9035 192.577 18 173.308 18 164C18 143.829 15.702 121.91 18.2894 102C19.8689 89.8454 25.7543 78.8843 28.3318 67C30.3751 57.5786 30.3766 47.5979 29.9606 38C29.8098 34.5184 28.0162 29.5679 32.1489 27.7461"/>
<path id="1" d="M44.6034 51.2014C48.5902 48.7214 65.6058 53.9118 67.3966 58.1335C70.3788 65.1638 68.455 75.4893 69.1698 83C70.8819 100.991 72.8543 118.979 74.0895 137C74.5718 144.037 77.7512 157.563 69.8665 161.968C60.6479 167.119 43.9905 149.788 39.9306 142.999C33.4109 132.098 37.8947 116.712 39.5718 105C41.0556 94.6381 40.5801 83.4718 41.0394 73C41.2172 68.9442 41.0275 53.4258 44.6034 51.2014"/>
<path id="2" d="M90.0008 144.534C103.948 141.217 107.106 162.498 93.9992 166.042C81.7283 169.359 78.3043 147.315 90.0008 144.534"/>
<path id="3" d="M105 211C135.57 228.381 177.245 216.572 209 210"/>
</g>
</g>
</svg>
